<?xml version="1.0" encoding="UTF-8"?> <svg xmlns="http://www.w3.org/2000/svg" xmlns:xlink="http://www.w3.org/1999/xlink" id="Ebene_2" data-name="Ebene 2" viewBox="0 0 2003.78 635.38"><defs><style> .cls-1 { fill: url(#Unbenannter_Verlauf_2-2); } .cls-2 { fill: url(#Unbenannter_Verlauf_38); } .cls-3 { fill: url(#Unbenannter_Verlauf_2); } .cls-4 { fill: url(#Unbenannter_Verlauf_38-2); } .cls-5 { fill: url(#Unbenannter_Verlauf_34); } .cls-6 { fill: #5e5e5e; } </style><linearGradient id="Unbenannter_Verlauf_34" data-name="Unbenannter Verlauf 34" x1="877.16" y1="102.78" x2="281.57" y2="102.78" gradientUnits="userSpaceOnUse"><stop offset="0" stop-color="#5e5e5e"></stop><stop offset=".52" stop-color="#9b9b9b"></stop><stop offset="1" stop-color="#d1d1d1"></stop></linearGradient><linearGradient id="Unbenannter_Verlauf_38" data-name="Unbenannter Verlauf 38" x1="877.16" y1="317.69" x2="281.57" y2="317.69" gradientUnits="userSpaceOnUse"><stop offset="0" stop-color="#5e5e5e"></stop><stop offset="1" stop-color="#d1d1d1"></stop></linearGradient><linearGradient id="Unbenannter_Verlauf_38-2" data-name="Unbenannter Verlauf 38" y1="532.6" y2="532.6" xlink:href="#Unbenannter_Verlauf_38"></linearGradient><linearGradient id="Unbenannter_Verlauf_2" data-name="Unbenannter Verlauf 2" x1="205.38" y1="458.18" x2="205.38" y2="109.9" gradientUnits="userSpaceOnUse"><stop offset="0" stop-color="#ce4d38"></stop><stop offset="1" stop-color="#ebb368"></stop></linearGradient><linearGradient id="Unbenannter_Verlauf_2-2" data-name="Unbenannter Verlauf 2" x1="167.68" y1="453.45" x2="167.68" y2="0" xlink:href="#Unbenannter_Verlauf_2"></linearGradient></defs><g id="Ebene_1-2" data-name="Ebene 1"><g id="logo-text"><path class="cls-6" d="m1158.97,187.43h-52.28v141.76h-41.99v-141.76h-51.32v-32.42h145.59v32.42Z"></path><path class="cls-6" d="m1244.14,315.2c-8.54,10.93-20.06,16.39-34.57,16.39s-24.94-4.13-32.24-12.38c-7.3-8.25-10.95-20.12-10.95-35.59v-83.86h40.31v84.1c0,11.09,5.38,16.63,16.15,16.63,9.25,0,15.83-3.31,19.74-9.93v-90.8h40.55v129.44h-37.8l-1.2-14Z"></path><path class="cls-6" d="m1383.51,236.24l-13.28-.96c-12.68,0-20.82,3.99-24.4,11.96v81.95h-40.31v-129.44h37.8l1.32,16.63c6.78-12.68,16.23-19.02,28.35-19.02,4.31,0,8.05.48,11.25,1.44l-.72,37.44Z"></path><path class="cls-6" d="m1435.07,199.75l1.32,15.19c8.93-11.72,21.25-17.58,36.96-17.58,13.48,0,23.55,4.03,30.21,12.08,6.66,8.06,10.11,20.18,10.35,36.37v83.38h-40.43v-81.71c0-6.54-1.32-11.34-3.95-14.42-2.63-3.07-7.42-4.61-14.36-4.61-7.9,0-13.76,3.11-17.58,9.33v91.4h-40.31v-129.44h37.8Z"></path><path class="cls-6" d="m1658.29,264.35l-17.23,18.9v45.94h-41.99v-174.18h41.99v76.8l14.59-22.13,37.56-54.67h51.92l-58.86,77.04,58.86,97.14h-49.77l-37.08-64.84Z"></path><path class="cls-6" d="m1816.56,331.58c-19.86,0-35.93-5.92-48.21-17.76-12.28-11.84-18.42-27.25-18.42-46.24v-3.35c0-13.24,2.45-24.92,7.36-35.05,4.91-10.13,12.06-17.96,21.47-23.51,9.41-5.54,20.58-8.31,33.5-8.31,18.18,0,32.54,5.64,43.07,16.93,10.53,11.29,15.79,27.02,15.79,47.19v15.67h-80.15c1.43,7.26,4.58,12.96,9.45,17.11,4.86,4.15,11.16,6.22,18.9,6.22,12.76,0,22.73-4.47,29.91-13.4l18.42,21.77c-5.02,6.94-12.14,12.46-21.35,16.57-9.21,4.11-19.12,6.16-29.73,6.16Zm-4.55-103.12c-11.8,0-18.82,7.82-21.05,23.45h40.67v-3.11c.16-6.46-1.48-11.46-4.9-15.01-3.43-3.55-8.33-5.32-14.71-5.32Z"></path><path class="cls-6" d="m1939.06,272.73l21.53-72.97h43.19l-52.76,151.09-2.27,5.5c-7.5,16.75-20.74,25.12-39.72,25.12-5.26,0-10.81-.79-16.63-2.38v-28.72h5.26c5.66,0,9.99-.82,12.98-2.45,2.99-1.64,5.2-4.57,6.64-8.8l3.23-8.62-44.98-130.74h43.07l20.46,72.97Z"></path><path class="cls-6" d="m1412.86,464.4c0-3.53-1.25-6.28-3.75-8.25-2.5-1.97-6.88-4.01-13.16-6.12-6.28-2.11-11.41-4.15-15.39-6.12-12.97-6.37-19.45-15.12-19.45-26.25,0-5.54,1.62-10.43,4.84-14.67,3.23-4.24,7.8-7.54,13.71-9.9,5.91-2.36,12.55-3.54,19.93-3.54s13.64,1.28,19.35,3.85c5.7,2.57,10.14,6.22,13.3,10.96,3.16,4.74,4.74,10.16,4.74,16.25h-24.05c0-4.08-1.25-7.24-3.75-9.48-2.5-2.24-5.88-3.37-10.14-3.37s-7.71.95-10.21,2.85c-2.5,1.9-3.75,4.32-3.75,7.25,0,2.57,1.37,4.89,4.12,6.98,2.75,2.09,7.58,4.24,14.5,6.46,6.92,2.22,12.6,4.62,17.04,7.18,10.81,6.23,16.22,14.82,16.22,25.77,0,8.75-3.3,15.62-9.9,20.62-6.6,4.99-15.65,7.49-27.14,7.49-8.11,0-15.45-1.45-22.03-4.36-6.57-2.91-11.52-6.89-14.84-11.96-3.32-5.06-4.98-10.89-4.98-17.49h24.19c0,5.36,1.39,9.31,4.16,11.85,2.77,2.54,7.27,3.81,13.5,3.81,3.99,0,7.13-.86,9.45-2.58,2.31-1.72,3.47-4.13,3.47-7.25Z"></path><path class="cls-6" d="m1445.36,453.13c0-7.42,1.44-14.03,4.33-19.83,2.89-5.8,7.03-10.25,12.44-13.37,5.41-3.12,11.75-4.67,19.04-4.67,11.13,0,19.91,3.45,26.32,10.34,6.41,6.9,9.62,16.28,9.62,28.14v.82c0,11.59-3.22,20.79-9.66,27.59-6.44,6.8-15.15,10.21-26.15,10.21s-19.08-3.17-25.5-9.52c-6.41-6.34-9.87-14.95-10.38-25.81l-.07-3.92Zm23.16,1.44c0,6.87,1.08,11.91,3.23,15.12,2.15,3.21,5.34,4.81,9.55,4.81,8.25,0,12.46-6.34,12.64-19.04v-2.34c0-13.33-4.26-20-12.78-20-7.74,0-11.94,5.75-12.58,17.25l-.07,4.19Z"></path><path class="cls-6" d="m1551.74,491h-23.23v-105.56h23.23v105.56Z"></path><path class="cls-6" d="m1607.89,491c-.82-1.51-1.56-3.73-2.2-6.67-4.26,5.36-10.22,8.04-17.87,8.04-7.01,0-12.97-2.12-17.87-6.36-4.9-4.24-7.35-9.56-7.35-15.98,0-8.06,2.98-14.16,8.93-18.28,5.96-4.12,14.61-6.18,25.98-6.18h7.15v-3.94c0-6.86-2.96-10.29-8.87-10.29-5.5,0-8.25,2.72-8.25,8.15h-23.16c0-7.18,3.06-13.02,9.17-17.5,6.12-4.48,13.92-6.73,23.4-6.73s16.97,2.31,22.47,6.94c5.5,4.63,8.32,10.97,8.45,19.04v32.92c.09,6.83,1.14,12.05,3.16,15.67v1.17h-23.16Zm-14.5-15.12c2.89,0,5.28-.62,7.18-1.86,1.9-1.24,3.26-2.63,4.09-4.19v-11.89h-6.73c-8.06,0-12.09,3.62-12.09,10.86,0,2.11.71,3.81,2.13,5.12,1.42,1.31,3.23,1.96,5.43,1.96Z"></path><path class="cls-6" d="m1685.68,437.6l-7.63-.55c-7.28,0-11.96,2.29-14.02,6.87v47.07h-23.16v-74.36h21.72l.76,9.55c3.89-7.28,9.32-10.93,16.29-10.93,2.47,0,4.63.27,6.46.82l-.41,21.51Z"></path></g><g><path class="cls-5" d="m445.24,205.56h-163.66L363.41,0h163.66l-81.83,205.56Zm175.29,0L702.36,0h-163.66l-81.83,205.56m338.47,0L877.16,0h-163.66l-81.83,205.56"></path><path class="cls-2" d="m445.24,420.47h-163.66l81.83-205.56h163.66l-81.83,205.56Zm175.29,0l81.83-205.56h-163.66l-81.83,205.56m338.47,0l81.83-205.56h-163.66l-81.83,205.56"></path><path class="cls-4" d="m445.24,635.38h-163.66l81.83-205.56h163.66l-81.83,205.56Zm175.29,0l81.83-205.56h-163.66l-81.83,205.56m338.47,0l81.83-205.56h-163.66l-81.83,205.56"></path><rect class="cls-6" x="118.05" y="488.3" width="190.93" height="33.31" rx="16.66" ry="16.66"></rect><path class="cls-6" d="m292.3,522.04h-157.57c-9.43,0-17.11-7.66-17.11-17.08s7.67-17.08,17.11-17.08h157.57c9.43,0,17.11,7.66,17.11,17.08s-7.67,17.08-17.11,17.08Zm-157.57-33.31c-8.96,0-16.26,7.28-16.26,16.23s7.29,16.23,16.26,16.23h157.57c8.96,0,16.26-7.28,16.26-16.23s-7.29-16.23-16.26-16.23h-157.57Z"></path><rect class="cls-6" x="135.52" y="541.62" width="155.99" height="33.31" rx="16.66" ry="16.66"></rect><path class="cls-6" d="m274.83,575.36h-122.63c-9.43,0-17.11-7.66-17.11-17.08s7.67-17.08,17.11-17.08h122.63c9.43,0,17.11,7.66,17.11,17.08s-7.67,17.08-17.11,17.08Zm-122.63-33.31c-8.96,0-16.26,7.28-16.26,16.23s7.29,16.23,16.26,16.23h122.63c8.96,0,16.26-7.28,16.26-16.23s-7.29-16.23-16.26-16.23h-122.63Z"></path><g><path class="cls-6" d="m256.41,599.27c0,19.71-19.98,35.69-44.62,35.69-24.64,0-44.62-15.98-44.62-35.69"></path><path class="cls-6" d="m211.8,635.38c-24.84,0-45.04-16.2-45.04-36.11h.85c0,19.45,19.82,35.27,44.19,35.27s44.19-15.82,44.19-35.27h.85c0,19.91-20.2,36.11-45.04,36.11Z"></path></g><path class="cls-3" d="m268.58,425.14h-18.72V129.51c0-7.96-4.76-15.07-12.12-18.11-7.36-3.04-15.76-1.38-21.4,4.25l-35.69,35.63c-4.32,4.31-6.7,10.05-6.7,16.15v33.88l-26.3,26.25c-7.29,7.29-7.29,19.14,0,26.43l19.41,19.37-19.27,19.25c-3.57,3.56-5.53,8.3-5.53,13.33,0,5.04,1.97,9.77,5.53,13.33l26.25,26.2v70.8h33.09v-74.66c0-6.34-2.47-12.3-6.96-16.78l-18.93-18.9,18.74-18.72c7.65-7.64,7.65-20.08,0-27.72l-18.76-18.73,19.21-19.18c4.26-4.26,6.61-9.92,6.61-15.94v-34l9.73-9.71v274.27c0,12.11,9.87,21.96,21.99,21.96h16.66"></path><path class="cls-1" d="m335.37,42.45C299.53,15.58,255.07,0,209.27,0,151.74,0,98.14,22.87,58.35,64.4,21.27,103.09,0,154.29,0,204.86s10.09,90.31,31.75,130.9c19.52,36.58,48.6,72.88,94.27,117.68l23.19-23.57c-85.73-84.09-116.12-142.97-116.12-225.01S103.88,33.04,209.27,33.04c44.66,0,83.96,16.51,113.44,41.21"></path></g></g></svg> 