<?xml version="1.0" encoding="utf-8"?>
<!-- Generator: Adobe Illustrator 26.5.0, SVG Export Plug-In . SVG Version: 6.00 Build 0)  -->
<svg version="1.1" id="Ebene_1" xmlns="http://www.w3.org/2000/svg" xmlns:xlink="http://www.w3.org/1999/xlink" x="0px" y="0px"
	 viewBox="0 0 500 500" style="enable-background:new 0 0 500 500;" xml:space="preserve">
<style type="text/css">
	.st0{fill:url(#SVGID_1_);}
	.st1{fill:url(#SVGID_00000015337994489620153060000002537580022396557480_);}
	.st2{fill:url(#SVGID_00000065760459547911899380000015919320241279590794_);}
	.st3{fill:#5F5F5F;}
	.st4{fill:url(#SVGID_00000160882018864848762840000018327551561981575351_);}
	.st5{fill:url(#SVGID_00000008855951664930165260000006635806330682209672_);}
</style>
<g id="Ebene_1-2">
	<g>
		
			<linearGradient id="SVGID_1_" gradientUnits="userSpaceOnUse" x1="470.4731" y1="356.5599" x2="164.3126" y2="356.5599" gradientTransform="matrix(1 0 0 -1 0 502)">
			<stop  offset="0" style="stop-color:#5F5F5F"/>
			<stop  offset="0.52" style="stop-color:#9C9B9B"/>
			<stop  offset="1" style="stop-color:#D1D1D1"/>
		</linearGradient>
		<path class="st0" d="M248.4,198.3h-84.1l42.1-105.7h84.1L248.4,198.3z M338.6,198.3l42.1-105.7h-84.1l-42.1,105.7 M428.4,198.3
			l42.1-105.7h-84.1l-42.1,105.7"/>
		
			<linearGradient id="SVGID_00000053542622100694530490000005192231683347741849_" gradientUnits="userSpaceOnUse" x1="470.4783" y1="246.0845" x2="164.3126" y2="246.0845" gradientTransform="matrix(1 0 0 -1 0 502)">
			<stop  offset="0" style="stop-color:#5F5F5F"/>
			<stop  offset="1" style="stop-color:#D1D1D1"/>
		</linearGradient>
		<path style="fill:url(#SVGID_00000053542622100694530490000005192231683347741849_);" d="M248.4,308.8h-84.1l42.1-105.7h84.1
			L248.4,308.8L248.4,308.8z M338.6,308.8l42.1-105.7h-84.1l-42.1,105.7 M428.4,308.8l42.1-105.7h-84.1l-42.1,105.7"/>
		
			<linearGradient id="SVGID_00000132048800096243776440000006329554944187160238_" gradientUnits="userSpaceOnUse" x1="470.4783" y1="135.6091" x2="164.3126" y2="135.6091" gradientTransform="matrix(1 0 0 -1 0 502)">
			<stop  offset="0" style="stop-color:#5F5F5F"/>
			<stop  offset="1" style="stop-color:#D1D1D1"/>
		</linearGradient>
		<path style="fill:url(#SVGID_00000132048800096243776440000006329554944187160238_);" d="M248.4,419.2h-84.1l42.1-105.7h84.1
			L248.4,419.2L248.4,419.2z M338.6,419.2l42.1-105.7h-84.1l-42.1,105.7 M428.4,419.2l42.1-105.7h-84.1l-42.1,105.7"/>
		<path class="st3" d="M88.8,343.6h81c4.7,0,8.6,3.8,8.6,8.6l0,0c0,4.7-3.8,8.6-8.6,8.6h-81c-4.7,0-8.6-3.8-8.6-8.6l0,0
			C80.2,347.5,84.1,343.6,88.8,343.6z"/>
		<path class="st3" d="M169.8,361h-81c-4.8,0-8.8-3.9-8.8-8.8s3.9-8.8,8.8-8.8h81c4.8,0,8.8,3.9,8.8,8.8
			C178.6,357,174.7,361,169.8,361z M88.8,343.8c-4.6,0-8.4,3.7-8.4,8.3s3.7,8.3,8.4,8.3h81c4.6,0,8.4-3.7,8.4-8.3s-3.7-8.3-8.4-8.3
			H88.8z"/>
		<path class="st3" d="M97.8,371h63.1c4.7,0,8.6,3.8,8.6,8.6v0c0,4.7-3.8,8.6-8.6,8.6H97.8c-4.7,0-8.6-3.8-8.6-8.6v0
			C89.2,374.9,93.1,371,97.8,371z"/>
		<path class="st3" d="M160.8,388.4h-63c-4.8,0-8.8-3.9-8.8-8.8s3.9-8.8,8.8-8.8h63c4.8,0,8.8,3.9,8.8,8.8S165.7,388.4,160.8,388.4
			L160.8,388.4z M97.8,371.2c-4.6,0-8.4,3.7-8.4,8.3s3.7,8.3,8.4,8.3h63c4.6,0,8.4-3.7,8.4-8.3s-3.7-8.3-8.4-8.3H97.8z"/>
		<g>
			<path class="st3" d="M151.4,400.7c0,10.1-10.3,18.3-22.9,18.3c-12.7,0-22.9-8.2-22.9-18.3"/>
			<path class="st3" d="M128.4,419.2c-12.8,0-23.2-8.3-23.2-18.6h0.4c0,10,10.2,18.1,22.7,18.1s22.7-8.1,22.7-18.1h0.4
				C151.6,410.9,141.2,419.2,128.4,419.2L128.4,419.2z"/>
		</g>
		
			<linearGradient id="SVGID_00000011015968870970871380000003153629350833962386_" gradientUnits="userSpaceOnUse" x1="125.1423" y1="173.8753" x2="125.1423" y2="352.9001" gradientTransform="matrix(1 0 0 -1 0 502)">
			<stop  offset="0" style="stop-color:#CE4E38"/>
			<stop  offset="1" style="stop-color:#EAB268"/>
		</linearGradient>
		<path style="fill:url(#SVGID_00000011015968870970871380000003153629350833962386_);" d="M157.6,311.2H148v-152
			c0-4.1-2.4-7.7-6.2-9.3c-3.8-1.6-8.1-0.7-11,2.2l-18.3,18.3c-2.2,2.2-3.4,5.2-3.4,8.3v17.4l-13.5,13.5c-3.7,3.7-3.7,9.8,0,13.6
			l10,10l-9.9,9.9c-1.8,1.8-2.8,4.3-2.8,6.9c0,2.6,1,5,2.8,6.9l13.5,13.5v36.4h17v-38.4c0-3.3-1.3-6.3-3.6-8.6l-9.7-9.7l9.6-9.6
			c3.9-3.9,3.9-10.3,0-14.2l-9.6-9.6l9.9-9.9c2.2-2.2,3.4-5.1,3.4-8.2v-17.5l5-5v141c0,6.2,5.1,11.3,11.3,11.3h8.6"/>
		
			<linearGradient id="SVGID_00000155140732962872187720000000426570879826523320_" gradientUnits="userSpaceOnUse" x1="105.7644" y1="176.3016" x2="105.7644" y2="409.3944" gradientTransform="matrix(1 0 0 -1 0 502)">
			<stop  offset="0" style="stop-color:#CE4E38"/>
			<stop  offset="1" style="stop-color:#EAB268"/>
		</linearGradient>
		<path style="fill:url(#SVGID_00000155140732962872187720000000426570879826523320_);" d="M192,114.4
			c-18.4-13.8-41.3-21.8-64.8-21.8c-29.6,0-57.1,11.8-77.6,33.1c-19.1,19.9-30,46.2-30,72.2s5.2,46.4,16.3,67.3
			c10,18.8,25,37.5,48.5,60.5l11.9-12.1c-44.1-43.2-59.7-73.5-59.7-115.7s36.4-88.3,90.6-88.3c23,0,43.2,8.5,58.3,21.2"/>
	</g>
</g>
</svg>
